<svg xmlns="http://www.w3.org/2000/svg" width="10.18" height="18" viewBox="0 0 10.18 18">
  <path id="Path_2" data-name="Path 2" d="M11.8,10.9c-2.27-.59-3-1.2-3-2.15,0-1.09,1.01-1.85,2.7-1.85,1.78,0,2.44.85,2.5,2.1h2.21A3.986,3.986,0,0,0,13,5.19V3H10V5.16c-1.94.42-3.5,1.68-3.5,3.61,0,2.31,1.91,3.46,4.7,4.13,2.5.6,3,1.48,3,2.41,0,.69-.49,1.79-2.7,1.79-2.06,0-2.87-.92-2.98-2.1H6.32c.12,2.19,1.76,3.42,3.68,3.83V21h3V18.85c1.95-.37,3.5-1.5,3.5-3.55C16.5,12.46,14.07,11.49,11.8,10.9Z" transform="translate(-6.32 -3)" fill="#7f9c9f"/>
</svg>


